<svg width="64" height="64" viewBox="0 0 64 64" fill="none" xmlns="http://www.w3.org/2000/svg">
<g clip-path="url(#clip0_69_21211)">
<path d="M0 0C21.12 0 42.24 0 64 0C64 21.12 64 42.24 64 64C42.88 64 21.76 64 0 64C0 42.88 0 21.76 0 0Z" fill="#1270EE"/>
<path d="M22.2762 13.0083C22.3468 13.0081 22.4175 13.0079 22.4904 13.0077C22.5678 13.0078 22.6452 13.0079 22.7249 13.008C22.8082 13.0079 22.8914 13.0077 22.9747 13.0076C23.2034 13.0072 23.4322 13.0072 23.661 13.0073C23.9077 13.0073 24.1545 13.0069 24.4012 13.0066C24.8847 13.0061 25.3683 13.006 25.8518 13.0059C26.245 13.0059 26.6382 13.0058 27.0314 13.0056C28.1467 13.005 29.262 13.0047 30.3773 13.0048C30.4374 13.0048 30.4976 13.0048 30.5595 13.0048C30.6498 13.0048 30.6498 13.0048 30.742 13.0048C31.7168 13.0048 32.6917 13.0042 33.6666 13.0034C34.668 13.0025 35.6695 13.002 36.671 13.0021C37.233 13.0021 37.795 13.002 38.3571 13.0013C38.8358 13.0007 39.3146 13.0006 39.7934 13.001C40.0374 13.0012 40.2815 13.0012 40.5255 13.0007C40.7494 13.0002 40.9733 13.0003 41.1972 13.0008C41.3156 13.001 41.4339 13.0005 41.5523 13C42.2184 13.0026 42.8828 13.0483 43.4935 13.3328C43.556 13.3613 43.556 13.3613 43.6196 13.3903C44.7089 13.9078 45.3505 14.917 45.7868 16.0044C46.3311 17.652 46.1354 19.3674 45.4335 20.9311C45.1889 21.4081 44.8593 21.9196 44.4085 22.2201C44.3881 22.2812 44.3678 22.3424 44.3467 22.4054C44.4115 22.4041 44.4762 22.4028 44.5428 22.4015C44.7871 22.3969 45.0314 22.3941 45.2757 22.3918C45.3807 22.3906 45.4856 22.3889 45.5905 22.3867C46.9442 22.3596 47.9928 22.7389 48.9834 23.6833C49.5799 24.2943 50.0148 25.0889 50.2367 25.9126C50.2774 26.065 50.2774 26.065 50.3733 26.2583C50.4756 26.5164 50.5163 26.7599 50.5564 27.0336C50.5741 27.1486 50.5947 27.2633 50.6206 27.3767C51.0323 29.1876 50.4548 31.1741 49.4998 32.7197C49.3833 32.8854 49.2502 33.015 49.1031 33.1535C49.1031 33.1943 49.1031 33.235 49.1031 33.277C49.18 33.2825 49.18 33.2825 49.2585 33.2882C51.1606 33.4315 51.1606 33.4315 51.8828 33.833C51.9518 33.8707 52.0209 33.9085 52.092 33.9473C53.1307 34.5529 53.8237 35.3269 54.4154 36.3656C54.4477 36.4217 54.48 36.4778 54.5133 36.5357C54.8308 37.1261 55.03 37.7631 55.2184 38.404C55.2326 38.4511 55.2468 38.4981 55.2615 38.5466C55.6655 39.9425 55.6047 41.6912 55.2802 43.0986C55.259 43.2005 55.259 43.2005 55.2375 43.3044C54.8385 45.0801 53.7307 46.9155 52.1916 47.9167C52.1561 47.9401 52.1206 47.9635 52.084 47.9876C50.9278 48.7417 49.7658 49.0188 48.4022 49.134C47.504 49.2103 46.6122 49.3038 45.7202 49.4343C45.1354 49.519 44.5499 49.583 43.9617 49.6385C43.5352 49.6797 43.1114 49.7321 42.6871 49.7913C41.8211 49.9119 40.9528 50.0139 40.0844 50.1167C39.9015 50.1384 39.7185 50.1602 39.5356 50.182C38.6865 50.2831 37.8374 50.3835 36.9881 50.4819C36.9284 50.4888 36.8688 50.4957 36.8074 50.5028C36.5308 50.5349 36.2542 50.5666 35.9775 50.598C35.5683 50.6446 35.16 50.6911 34.7532 50.7562C34.0083 50.8749 33.2745 50.901 32.5215 50.9049C32.4731 50.9054 32.4248 50.9058 32.3749 50.9064C30.7088 50.9194 29.0425 50.6771 27.3928 50.4654C27.182 50.4384 26.9712 50.4118 26.7604 50.3851C26.4322 50.3436 26.104 50.3019 25.7759 50.26C25.3721 50.2086 24.9681 50.1579 24.5642 50.1076C24.0451 50.043 23.5262 49.9772 23.0074 49.9107C22.9017 49.8972 22.9017 49.8972 22.7938 49.8834C22.5068 49.8467 22.2197 49.8099 21.9327 49.7731C21.1466 49.6721 20.3602 49.5734 19.5728 49.4825C19.5083 49.475 19.4438 49.4675 19.3773 49.4599C18.9783 49.4143 18.5789 49.3724 18.1791 49.3336C17.7402 49.2908 17.3034 49.2395 16.866 49.1828C16.6309 49.1533 16.3953 49.1309 16.1594 49.109C14.4977 48.9535 13.0038 48.6393 11.7318 47.4843C11.6658 47.4277 11.5998 47.3713 11.5337 47.3149C10.7481 46.6332 10.2385 45.8346 9.8169 44.8899C9.79771 44.8476 9.77852 44.8053 9.75875 44.7617C9.21974 43.5517 9.00298 42.2466 9.0023 40.9289C9.00155 40.8529 9.00079 40.777 9.00001 40.6987C8.99657 38.5138 9.80144 36.3832 11.3158 34.7984C12.487 33.6795 13.8067 33.3635 15.3821 33.3976C15.421 33.3986 15.4598 33.3996 15.4998 33.4006C15.2128 32.8858 15.2128 32.8858 14.8744 32.4045C13.8409 31.0668 13.6662 29.0455 13.8728 27.4252C14.1158 25.8113 14.7921 24.1636 16.1175 23.1466C16.3175 23.0105 16.5218 22.8898 16.7352 22.776C16.7803 22.7518 16.8254 22.7276 16.8718 22.7027C17.5719 22.3589 18.3664 22.3822 19.1288 22.3668C19.2266 22.3644 19.3245 22.362 19.4223 22.3595C19.659 22.3537 19.8958 22.3485 20.1326 22.3436C20.0912 22.2998 20.0498 22.2559 20.0071 22.2107C19.7143 21.8957 19.4465 21.5967 19.2408 21.2163C19.2027 21.1472 19.1645 21.0781 19.1252 21.0069C18.931 20.6211 18.7968 20.2538 18.7042 19.8342C18.6937 19.7886 18.6833 19.7431 18.6726 19.6962C18.6438 19.5699 18.6155 19.4435 18.5883 19.3169C18.5719 19.245 18.5719 19.245 18.555 19.1718C18.3394 17.9309 18.4696 16.4115 19.0825 15.3018C19.1302 15.2107 19.1302 15.2107 19.1788 15.1179C19.735 14.1032 20.5355 13.4632 21.6151 13.078C21.839 13.0242 22.0462 13.0085 22.2762 13.0083Z" fill="white"/>
<path d="M49.2538 36.0336C49.3331 36.032 49.4124 36.0305 49.4941 36.029C49.9581 36.0275 50.3068 36.0676 50.7093 36.3038C50.7616 36.3321 50.814 36.3603 50.8679 36.3895C51.9212 37.0759 52.4792 38.2978 52.7562 39.4879C52.8367 39.9147 52.8339 40.3454 52.8327 40.7783C52.8327 40.8219 52.8327 40.8656 52.8327 40.9105C52.8296 41.9309 52.6738 42.8419 52.2536 43.7781C52.2264 43.84 52.1991 43.902 52.1711 43.9658C51.6977 44.9778 50.9558 45.8045 49.9102 46.2334C49.4598 46.3857 49.0034 46.4362 48.5305 46.4593C48.0314 46.4872 47.5406 46.5506 47.0461 46.622C46.2828 46.732 45.5202 46.8294 44.7523 46.9013C43.7568 46.9948 42.7689 47.1307 41.7786 47.2678C40.9069 47.3865 40.0323 47.4776 39.1572 47.5674C38.1783 47.6679 37.2009 47.778 36.2241 47.8974C36.1692 47.9041 36.1142 47.9108 36.0576 47.9177C35.9014 47.9368 35.7452 47.956 35.589 47.9753C35.52 47.9838 35.52 47.9838 35.4495 47.9925C35.2021 48.0233 34.9564 48.0595 34.7107 48.102C34.2153 48.1725 33.8796 48.0122 33.4753 47.7314C32.7037 47.1377 32.1553 46.3548 31.8075 45.4459C31.7734 45.3587 31.7734 45.3587 31.7387 45.2697C31.1679 43.6965 31.3479 41.7824 32.0135 40.2673C32.5534 39.2407 33.2755 38.4275 34.2783 37.8481C34.322 37.8208 34.3657 37.7934 34.4108 37.7653C35.0199 37.4136 35.8749 37.3825 36.5626 37.2995C36.6874 37.2844 36.8121 37.2686 36.9369 37.2528C37.4228 37.1923 37.9071 37.1513 38.3959 37.1215C38.6567 37.103 38.9118 37.0675 39.1698 37.0257C39.8813 36.9174 40.596 36.841 41.3114 36.7637C41.4029 36.7538 41.4944 36.7439 41.5858 36.734C41.6306 36.7292 41.6754 36.7243 41.7216 36.7193C42.0309 36.6855 42.3396 36.6479 42.6482 36.6086C43.0019 36.5638 43.3547 36.5253 43.7099 36.4968C43.8299 36.4867 43.9499 36.4766 44.0699 36.4664C44.1746 36.4576 44.1746 36.4576 44.2814 36.4486C44.7754 36.4068 45.2693 36.3636 45.7631 36.3201C45.8855 36.3094 46.008 36.2987 46.1304 36.2881C46.699 36.2389 47.2661 36.1891 47.8317 36.1122C48.3067 36.0506 48.7752 36.034 49.2538 36.0336Z" fill="#1270EE"/>
<path d="M14.8911 36.1021C14.9631 36.1026 14.9631 36.1026 15.0365 36.1031C15.6212 36.1128 16.1982 36.1849 16.7778 36.2575C16.8963 36.2719 17.0148 36.2861 17.1334 36.3004C17.8489 36.3868 18.5634 36.4809 19.2778 36.5762C20.2777 36.7061 21.2813 36.8039 22.2842 36.908C23.3478 37.0184 24.4101 37.1366 25.4716 37.2655C26.3673 37.3738 27.2636 37.4765 28.1598 37.58C28.3042 37.5967 28.4486 37.6134 28.593 37.6301C28.8047 37.6547 29.0164 37.6791 29.2282 37.7036C29.292 37.711 29.3557 37.7184 29.4215 37.726C29.8046 37.7702 30.188 37.811 30.5719 37.8481C30.4945 38.0575 30.4061 38.2328 30.2785 38.4156C29.6758 39.3066 29.3115 40.1975 29.0894 41.2455C29.0801 41.2871 29.0708 41.3287 29.0612 41.3715C28.8042 42.5401 28.7911 43.7909 29.0894 44.9517C29.1131 45.0539 29.1131 45.0539 29.1372 45.1581C29.3665 46.0593 29.7587 46.944 30.2498 47.7324C30.3249 47.855 30.3249 47.855 30.3249 47.9167C29.6104 47.8834 28.9093 47.8056 28.2015 47.7044C28.0093 47.6773 27.8171 47.6503 27.6248 47.6236C27.5774 47.617 27.5299 47.6103 27.481 47.6035C27.1016 47.5514 26.7215 47.508 26.3407 47.4671C26.0558 47.4363 25.772 47.4011 25.4882 47.362C24.9545 47.2893 24.4194 47.2325 23.8839 47.1754C23.5697 47.1419 23.2555 47.1079 22.9413 47.0739C22.877 47.067 22.8127 47.06 22.7464 47.0528C22.0976 46.9825 21.449 46.9096 20.8006 46.8358C20.7451 46.8294 20.6897 46.8231 20.6326 46.8166C20.006 46.7452 19.3796 46.6729 18.7532 46.5998C18.6957 46.5931 18.6382 46.5863 18.5789 46.5794C18.2956 46.5464 18.0124 46.5132 17.7291 46.4799C17.2431 46.4229 16.757 46.3672 16.2701 46.3184C16.1911 46.3104 16.1122 46.3024 16.0308 46.2942C15.8896 46.2801 15.7483 46.2666 15.6069 46.2536C14.7397 46.1675 13.9831 45.9288 13.3379 45.3224C13.3379 45.2816 13.3379 45.2408 13.3379 45.1988C13.2768 45.1784 13.2156 45.1581 13.1526 45.1371C12.4791 44.4085 12.0264 43.5039 11.7936 42.5427C11.7828 42.5012 11.7719 42.4597 11.7607 42.417C11.6544 41.9652 11.6492 41.5163 11.6506 41.055C11.6508 40.9223 11.6493 40.7897 11.6478 40.657C11.6415 39.2722 12.0675 37.8338 13.0467 36.8214C13.5866 36.3483 14.1708 36.0938 14.8911 36.1021Z" fill="#1270EE"/>
<path d="M46.8004 24.9454C46.8701 25.0029 46.8701 25.0029 46.9411 25.0615C46.9894 25.1004 47.0378 25.1394 47.0876 25.1795C47.8447 25.8626 48.3684 27.0052 48.4353 28.0178C48.4401 28.2036 48.4407 28.3888 48.439 28.5747C48.4387 28.64 48.4383 28.7053 48.4379 28.7726C48.4297 29.4143 48.3491 29.9634 48.1147 30.5591C48.099 30.5991 48.0833 30.6391 48.0672 30.6804C47.6792 31.65 47.0719 32.7058 46.0763 33.1535C45.4121 33.3686 44.7443 33.4695 44.0533 33.5511C43.9489 33.5639 43.8445 33.5768 43.7401 33.5897C43.4638 33.6236 43.1875 33.6566 42.9111 33.6893C42.74 33.7095 42.5689 33.7299 42.3978 33.7503C41.3527 33.8747 40.3072 33.995 39.2605 34.1058C38.6373 34.1719 38.0146 34.2425 37.3922 34.3162C37.2301 34.3354 37.0679 34.3545 36.9058 34.3736C36.6595 34.4026 36.4133 34.4317 36.1671 34.4614C36.0021 34.4813 35.8372 34.5008 35.6722 34.5201C35.5197 34.538 35.3674 34.5561 35.2151 34.5748C33.8311 34.7346 33.8311 34.7346 33.4867 34.524C33.3906 34.4376 33.3906 34.4376 33.2898 34.3271C33.2463 34.2804 33.2028 34.2338 33.158 34.1857C32.1 32.9699 31.6375 31.4587 31.7301 29.8601C31.8523 28.5472 32.4879 27.3609 33.4365 26.4552C34.3647 25.686 35.5659 25.6472 36.7142 25.5286C36.839 25.5155 36.9638 25.5022 37.0886 25.489C37.4694 25.4488 37.8504 25.4095 38.2314 25.3703C38.3511 25.358 38.4708 25.3456 38.5905 25.3333C38.9238 25.2989 39.2571 25.265 39.5904 25.2314C39.6408 25.2262 39.6913 25.2211 39.7433 25.2159C40.2133 25.1684 40.6825 25.1232 41.154 25.0933C41.4919 25.0708 41.8206 25.024 42.1547 24.9694C42.5808 24.9072 43.0104 24.8768 43.4395 24.8414C43.5788 24.8298 43.7181 24.818 43.8575 24.8062C43.983 24.7955 44.1086 24.7851 44.2341 24.7747C44.3996 24.7592 44.5633 24.7416 44.7281 24.7203C45.4117 24.6352 46.2067 24.5412 46.8004 24.9454Z" fill="#1270EE"/>
<path d="M18.7851 24.7913C18.8691 24.7922 18.8691 24.7922 18.9548 24.793C19.7426 24.8096 20.5243 24.9076 21.3061 24.9998C21.4028 25.0111 21.4995 25.0225 21.5962 25.0339C21.6984 25.0459 21.8006 25.0579 21.9028 25.07C22.0642 25.089 22.2256 25.1079 22.387 25.1269C22.4979 25.14 22.6087 25.153 22.7195 25.1662C23.8154 25.2957 24.913 25.4068 26.0115 25.5125C26.5822 25.5677 27.1498 25.6268 27.7168 25.7125C28.0843 25.7652 28.4535 25.801 28.8228 25.8375C28.943 25.8495 28.943 25.8495 29.0656 25.8617C29.6906 25.9224 30.3148 25.9652 30.9423 25.9881C30.9023 26.1875 30.8301 26.338 30.7276 26.5131C29.6586 28.378 29.2522 30.3127 29.8059 32.431C29.982 33.0553 30.2347 33.6277 30.5384 34.1997C30.6335 34.3889 30.6335 34.3889 30.6335 34.5124C30.0774 34.4757 29.5256 34.4173 28.9728 34.3475C28.3432 34.2681 27.7137 34.1915 27.0817 34.1341C26.6952 34.0989 26.3091 34.0621 25.9235 34.0183C25.8442 34.0094 25.7648 34.0004 25.6831 33.9913C25.5142 33.9666 25.3606 33.937 25.1961 33.8962C24.8595 33.8205 24.5241 33.7974 24.1804 33.7746C23.44 33.7202 22.704 33.6433 21.9669 33.5553C21.7694 33.5318 21.5719 33.509 21.3744 33.4862C20.6979 33.4071 20.0235 33.3179 19.3504 33.2136C19.2865 33.2039 19.2225 33.1943 19.1566 33.1844C18.264 33.0416 17.6117 32.6086 17.0632 31.8833C16.7928 31.4727 16.5974 31.0188 16.4262 30.5591C16.4042 30.5026 16.3821 30.4461 16.3594 30.3878C16.1688 29.8482 16.1427 29.3515 16.1503 28.7862C16.1521 28.6403 16.1516 28.4946 16.1508 28.3488C16.1527 26.9742 16.6393 26.1049 17.5709 25.1177C17.9409 24.8315 18.3287 24.7836 18.7851 24.7913Z" fill="#1270EE"/>
<path d="M42.1581 15.0971C42.209 15.0953 42.26 15.0935 42.3124 15.0917C42.7085 15.0876 42.9091 15.1925 43.2138 15.4496C43.4298 15.688 43.5727 15.9546 43.7101 16.2437C43.7277 16.2805 43.7454 16.3173 43.7635 16.3551C44.0392 16.962 44.1302 17.5372 44.1232 18.2011C44.1239 18.2684 44.1246 18.3357 44.1254 18.4051C44.1215 19.4798 43.7418 20.5255 43.0207 21.3246C42.5623 21.7774 42.1356 21.926 41.5057 22.0347C41.4443 22.0458 41.4443 22.0458 41.3818 22.0571C40.731 22.1735 40.0769 22.2522 39.4197 22.3228C38.7066 22.3996 37.9943 22.4825 37.2819 22.5662C37.1454 22.5822 37.0089 22.5982 36.8723 22.6142C36.0997 22.7045 35.3276 22.798 34.5566 22.9014C33.5117 23.0406 33.5117 23.0406 33.2178 22.8947C32.4974 22.3418 32.0053 21.2535 31.8868 20.3785C31.7723 19.0803 32.0262 17.9251 32.8578 16.9078C33.0122 16.7379 33.0122 16.7379 33.1666 16.5989C33.2033 16.5641 33.24 16.5293 33.2779 16.4935C33.3189 16.4556 33.3599 16.4178 33.4021 16.3788C33.4581 16.3271 33.4581 16.3271 33.5153 16.2744C33.9717 15.936 34.4108 15.862 34.9696 15.7997C35.0518 15.7899 35.1341 15.78 35.2164 15.7701C35.4485 15.7424 35.6807 15.716 35.9131 15.6899C36.0792 15.6713 36.2452 15.6524 36.4113 15.6334C37.4455 15.5154 38.4799 15.3999 39.5155 15.2947C39.5644 15.2897 39.6133 15.2846 39.6637 15.2795C40.0774 15.238 40.4913 15.2133 40.9065 15.1934C41.1324 15.1815 41.1324 15.1815 41.344 15.1468C41.6165 15.1097 41.8835 15.1003 42.1581 15.0971Z" fill="#1270EE"/>
<path d="M27.047 15.5218C27.1365 15.5316 27.1365 15.5316 27.2277 15.5416C27.7876 15.6033 28.3444 15.667 28.8992 15.7654C29.3361 15.8354 29.777 15.8784 30.2167 15.9271C30.3174 15.9385 30.4182 15.9498 30.519 15.9612C30.7631 15.9886 31.0072 16.0159 31.2513 16.043C31.1801 16.2248 31.106 16.4024 31.0185 16.5769C30.2385 18.1616 29.8857 19.8754 30.4622 21.5932C30.5651 21.8785 30.683 22.1555 30.8105 22.4307C30.8807 22.5907 30.8807 22.5907 30.8807 22.7142C30.1689 22.6797 29.4647 22.618 28.7573 22.5328C28.578 22.5115 28.3986 22.4904 28.2192 22.4693C28.1742 22.464 28.1291 22.4586 28.0827 22.4531C27.7582 22.415 27.4334 22.3804 27.1083 22.347C26.4639 22.2803 25.8208 22.2031 25.1777 22.1243C24.9818 22.1004 24.7859 22.0768 24.59 22.0532C23.9951 21.9809 23.4009 21.9054 22.8085 21.8147C22.7613 21.8076 22.714 21.8006 22.6654 21.7933C22.0476 21.6954 21.6524 21.462 21.2507 20.9844C21.0093 20.6401 20.8349 20.2666 20.6885 19.8728C20.6557 19.7857 20.6557 19.7857 20.6223 19.6969C20.441 19.1707 20.4057 18.6932 20.4144 18.1393C20.414 18.0608 20.4135 17.9822 20.4131 17.9013C20.4194 16.9482 20.6524 16.1912 21.3062 15.487C22.3421 14.5042 25.7124 15.3749 27.047 15.5218Z" fill="#1270EE"/>
<path d="M18.1174 39.1377C18.2604 39.1546 18.4034 39.1714 18.5464 39.1881C18.7561 39.2127 18.9657 39.2373 19.1753 39.2622C19.5876 39.311 20 39.3567 20.4131 39.399C20.7948 39.4382 21.1743 39.4841 21.5534 39.5431C22.0542 39.6177 22.5557 39.6779 23.0591 39.7322C23.7627 39.8083 24.4642 39.895 25.1655 39.9894C25.314 40.0092 25.4626 40.0283 25.6112 40.0471C25.6547 40.0527 25.6982 40.0583 25.743 40.064C25.8564 40.0785 25.9698 40.0929 26.0832 40.1072C26.248 40.1338 26.248 40.1338 26.3715 40.1955C26.3732 40.2959 26.3744 40.3963 26.3754 40.4967C26.3761 40.5526 26.3768 40.6085 26.3776 40.666C26.3715 40.8132 26.3715 40.8132 26.3098 40.9368C26.2945 41.0904 26.2832 41.2422 26.275 41.3962C26.2724 41.444 26.2699 41.4918 26.2672 41.5411C26.2455 41.9984 26.2413 42.4556 26.2403 42.9134C26.24 42.9834 26.2397 43.0533 26.2394 43.1254C26.2401 43.4834 26.2554 43.8324 26.2963 44.1879C26.3179 44.4225 26.3136 44.6547 26.3098 44.8901C26.0948 44.8724 25.8799 44.8542 25.665 44.8361C25.6061 44.8312 25.5471 44.8263 25.4864 44.8213C25.0248 44.782 24.5654 44.7299 24.1055 44.6747C23.7349 44.6304 23.3638 44.59 22.9928 44.5493C21.8381 44.4224 20.6841 44.2893 19.5302 44.1554C18.1688 43.9928 18.1688 43.9928 16.8044 43.8596C15.97 43.7859 15.4594 43.5449 14.8938 42.9134C14.3723 42.1983 14.3665 41.2574 14.4785 40.4108C14.5698 39.9892 14.7323 39.6631 15.0057 39.3307C15.0332 39.2923 15.0607 39.2538 15.089 39.2142C15.6518 38.5703 17.3773 39.0484 18.1174 39.1377Z" fill="white"/>
<path d="M19.5794 27.1356C19.6434 27.137 19.6434 27.137 19.7086 27.1385C20.22 27.1556 20.7274 27.2208 21.2344 27.2866C21.5221 27.3238 21.8099 27.3593 22.0978 27.3947C22.1816 27.4051 22.1816 27.4051 22.267 27.4157C22.6668 27.4647 23.0664 27.5032 23.4681 27.5323C24.1458 27.583 24.8153 27.6856 25.4866 27.7885C25.5717 27.8016 25.6567 27.8146 25.7418 27.8276C25.804 27.8372 25.804 27.8372 25.8674 27.8469C26.2566 27.906 26.6468 27.9533 27.0378 27.9988C27.2361 28.0264 27.2361 28.0264 27.4214 28.0882C27.4213 28.1224 27.4211 28.1566 27.421 28.1918C27.4196 28.5526 27.4187 28.9135 27.418 29.2743C27.4177 29.4084 27.4173 29.5424 27.4168 29.6765C27.4137 30.447 27.4201 31.2115 27.4832 31.9798C26.8987 31.9356 26.3168 31.8729 25.7346 31.806C25.6394 31.7952 25.5443 31.7844 25.4491 31.7735C25.2513 31.751 25.0534 31.7283 24.8556 31.7056C24.6025 31.6766 24.3494 31.6478 24.0963 31.619C23.9005 31.5967 23.7047 31.5743 23.5089 31.5519C23.4155 31.5412 23.3221 31.5306 23.2288 31.52C23.0986 31.5052 22.9684 31.4902 22.8382 31.4752C22.7643 31.4668 22.6904 31.4583 22.6143 31.4496C22.4436 31.4272 22.2777 31.3966 22.1091 31.3621C21.9524 31.3463 21.7961 31.3322 21.6391 31.3198C21.5469 31.3122 21.4548 31.3045 21.3626 31.2968C21.2188 31.285 21.075 31.2733 20.9312 31.2619C19.2967 31.1307 19.2967 31.1307 18.8363 30.6042C18.3064 29.8915 18.3284 29.0545 18.4251 28.2011C18.5653 27.606 18.9415 27.1205 19.5794 27.1356Z" fill="white"/>
<path d="M24.2093 17.0505C24.3394 17.0677 24.4695 17.0848 24.5997 17.1018C24.6671 17.1107 24.7345 17.1195 24.8039 17.1286C25.1594 17.1735 25.5155 17.2116 25.8718 17.2498C25.9436 17.2575 26.0154 17.2653 26.0893 17.2733C26.3835 17.3052 26.6776 17.3369 26.9718 17.3681C27.1907 17.3914 27.4096 17.4151 27.6284 17.4389C27.7275 17.4493 27.7275 17.4493 27.8286 17.4598C27.8906 17.4666 27.9526 17.4734 28.0164 17.4805C28.0702 17.4862 28.124 17.492 28.1795 17.4979C28.3834 17.5313 28.5819 17.5923 28.7806 17.6491C28.7806 18.6683 28.7806 19.6875 28.7806 20.7376C28.3635 20.7376 27.9726 20.7264 27.5618 20.6788C27.5061 20.6726 27.4504 20.6664 27.3931 20.66C27.2134 20.64 27.0337 20.6193 26.8541 20.5987C26.7294 20.5845 26.6047 20.5703 26.4801 20.5561C26.1713 20.5208 25.8626 20.4849 25.554 20.4487C25.3957 20.4303 25.2375 20.412 25.0792 20.3939C24.8201 20.3641 24.5611 20.3329 24.3022 20.3014C24.2284 20.2929 24.1547 20.2844 24.0787 20.2756C22.7979 20.114 22.7979 20.114 22.4104 19.6953C22.0362 19.1969 21.9404 18.756 21.9858 18.1433C22.0744 17.6821 22.227 17.3935 22.5726 17.0739C23.0605 16.8386 23.6871 16.9772 24.2093 17.0505Z" fill="white"/>
<path d="M26.3713 40.2572C26.4121 40.2572 26.4529 40.2572 26.4949 40.2572C26.5644 40.3962 26.5644 40.3962 26.6184 40.5661C26.5644 40.7089 26.5644 40.7089 26.4949 40.8131C26.4541 40.8131 26.4133 40.8131 26.3713 40.8131C26.3713 40.6297 26.3713 40.4462 26.3713 40.2572Z" fill="#1270EE"/>
<path d="M21.615 15.2401C21.6558 15.2605 21.6966 15.2809 21.7386 15.3019C21.5551 15.4853 21.3716 15.6688 21.1826 15.8578C21.1419 15.8374 21.1011 15.8171 21.0591 15.796C21.2247 15.5753 21.3942 15.4057 21.615 15.2401Z" fill="#1270EE"/>
<path d="M44.7173 22.0347C44.6969 22.1366 44.6765 22.2385 44.6555 22.3435C44.5536 22.3435 44.4517 22.3435 44.3467 22.3435C44.4862 22.0347 44.4862 22.0347 44.7173 22.0347Z" fill="#1270EE"/>
<path d="M50.6475 33.4624C50.9142 33.4938 51.1437 33.5363 51.3887 33.6477C51.3276 33.6885 51.2664 33.7293 51.2034 33.7713C51.0637 33.7293 51.0637 33.7293 50.9138 33.6554C50.8639 33.6314 50.814 33.6073 50.7626 33.5826C50.7246 33.5633 50.6866 33.544 50.6475 33.5242C50.6475 33.5038 50.6475 33.4834 50.6475 33.4624Z" fill="white"/>
<path d="M49.6587 32.3503C49.6995 32.3503 49.7402 32.3503 49.7822 32.3503C49.7149 32.5836 49.6644 32.75 49.4734 32.9063C49.4326 32.8859 49.3919 32.8655 49.3499 32.8445C49.3982 32.7618 49.4472 32.6795 49.4966 32.5974C49.5238 32.5516 49.551 32.5057 49.5791 32.4584C49.6054 32.4228 49.6316 32.3871 49.6587 32.3503Z" fill="#1270EE"/>
</g>
<defs>
<clipPath id="clip0_69_21211">
<rect width="64" height="64" rx="16" fill="white"/>
</clipPath>
</defs>
</svg>
